<svg width="90" height="22" viewBox="0 0 90 22" fill="none" xmlns="http://www.w3.org/2000/svg">
<path d="M85.3654 10.186C84.9648 7.03081 82.2634 4.58331 79 4.58331C76.4737 4.58331 74.2792 6.06006 73.2773 8.38748C71.3083 8.97598 69.8334 10.835 69.8334 12.8333C69.8334 15.3606 71.8895 17.4166 74.4167 17.4166H84.5C86.5222 17.4166 88.1667 15.7721 88.1667 13.75C88.1653 12.9283 87.8886 12.1308 87.3808 11.4847C86.8731 10.8387 86.1635 10.3815 85.3654 10.186ZM79.9167 12.8333V15.5833H78.0834V12.8333H75.3334L79 8.24998L82.6667 12.8333H79.9167Z" fill="#666666"/>
<path d="M9.85653 4.90909H11.8381V13.5192C11.8381 14.4354 11.6229 15.2472 11.1925 15.9545C10.7621 16.6577 10.157 17.2116 9.37713 17.6165C8.5973 18.017 7.68324 18.2173 6.63494 18.2173C5.59091 18.2173 4.67898 18.017 3.89915 17.6165C3.11932 17.2116 2.5142 16.6577 2.08381 15.9545C1.65341 15.2472 1.43821 14.4354 1.43821 13.5192V4.90909H3.41335V13.3594C3.41335 13.9517 3.54332 14.478 3.80327 14.9382C4.06747 15.3984 4.44034 15.7607 4.92188 16.0249C5.40341 16.2848 5.97443 16.4148 6.63494 16.4148C7.29972 16.4148 7.87287 16.2848 8.3544 16.0249C8.8402 15.7607 9.21094 15.3984 9.46662 14.9382C9.72656 14.478 9.85653 13.9517 9.85653 13.3594V4.90909ZM14.5563 21.6818V8.18182H16.4228V9.77344H16.5826C16.6934 9.56889 16.8532 9.33239 17.062 9.06392C17.2708 8.79545 17.5605 8.56108 17.9313 8.3608C18.302 8.15625 18.7921 8.05398 19.4015 8.05398C20.1941 8.05398 20.9015 8.25426 21.5236 8.65483C22.1458 9.0554 22.6337 9.63281 22.9874 10.3871C23.3453 11.1413 23.5243 12.049 23.5243 13.1101C23.5243 14.1712 23.3475 15.081 22.9938 15.8395C22.6401 16.5937 22.1543 17.1754 21.5364 17.5845C20.9185 17.9893 20.2132 18.1918 19.4206 18.1918C18.824 18.1918 18.3361 18.0916 17.9569 17.8913C17.5819 17.6911 17.2878 17.4567 17.0748 17.1882C16.8617 16.9197 16.6976 16.6811 16.5826 16.4723H16.4675V21.6818H14.5563ZM16.4292 13.0909C16.4292 13.7812 16.5293 14.3864 16.7296 14.9062C16.9299 15.4261 17.2196 15.8331 17.5989 16.1271C17.9782 16.4169 18.4426 16.5618 18.9924 16.5618C19.5634 16.5618 20.0407 16.4105 20.4242 16.108C20.8077 15.8011 21.0975 15.3857 21.2935 14.8615C21.4938 14.3374 21.5939 13.7472 21.5939 13.0909C21.5939 12.4432 21.4959 11.8615 21.2999 11.3459C21.1081 10.8303 20.8184 10.4233 20.4306 10.125C20.0471 9.8267 19.5676 9.67756 18.9924 9.67756C18.4384 9.67756 17.9696 9.82031 17.5861 10.1058C17.2069 10.3913 16.9192 10.7898 16.7232 11.3011C16.5272 11.8125 16.4292 12.4091 16.4292 13.0909ZM27.5769 4.90909V18H25.6657V4.90909H27.5769ZM34.2837 18.1982C33.3633 18.1982 32.56 17.9872 31.8739 17.5653C31.1879 17.1435 30.6552 16.5533 30.2759 15.7947C29.8967 15.0362 29.707 14.1499 29.707 13.1357C29.707 12.1172 29.8967 11.2266 30.2759 10.4638C30.6552 9.70099 31.1879 9.10866 31.8739 8.68679C32.56 8.26491 33.3633 8.05398 34.2837 8.05398C35.2042 8.05398 36.0075 8.26491 36.6935 8.68679C37.3796 9.10866 37.9123 9.70099 38.2915 10.4638C38.6708 11.2266 38.8604 12.1172 38.8604 13.1357C38.8604 14.1499 38.6708 15.0362 38.2915 15.7947C37.9123 16.5533 37.3796 17.1435 36.6935 17.5653C36.0075 17.9872 35.2042 18.1982 34.2837 18.1982ZM34.2901 16.5938C34.8867 16.5938 35.381 16.4361 35.7731 16.1207C36.1651 15.8054 36.4549 15.3857 36.6424 14.8615C36.8342 14.3374 36.93 13.7599 36.93 13.1293C36.93 12.5028 36.8342 11.9276 36.6424 11.4034C36.4549 10.875 36.1651 10.451 35.7731 10.1314C35.381 9.81179 34.8867 9.65199 34.2901 9.65199C33.6893 9.65199 33.1907 9.81179 32.7944 10.1314C32.4023 10.451 32.1104 10.875 31.9187 11.4034C31.7312 11.9276 31.6374 12.5028 31.6374 13.1293C31.6374 13.7599 31.7312 14.3374 31.9187 14.8615C32.1104 15.3857 32.4023 15.8054 32.7944 16.1207C33.1907 16.4361 33.6893 16.5938 34.2901 16.5938ZM43.851 18.2173C43.2289 18.2173 42.6664 18.1023 42.1635 17.8722C41.6607 17.6378 41.2623 17.299 40.9682 16.8558C40.6784 16.4126 40.5336 15.8693 40.5336 15.2259C40.5336 14.6719 40.6401 14.2159 40.8532 13.858C41.0662 13.5 41.3539 13.2166 41.7161 13.0078C42.0783 12.799 42.4831 12.6413 42.9306 12.5348C43.378 12.4283 43.834 12.3473 44.2985 12.2919C44.8865 12.2237 45.3638 12.1683 45.7303 12.1257C46.0968 12.0788 46.3631 12.0043 46.5293 11.902C46.6955 11.7997 46.7786 11.6335 46.7786 11.4034V11.3587C46.7786 10.8004 46.6209 10.3679 46.3056 10.0611C45.9945 9.75426 45.53 9.60085 44.9121 9.60085C44.2686 9.60085 43.7615 9.74361 43.3908 10.0291C43.0243 10.3104 42.7708 10.6236 42.6301 10.9688L40.834 10.5597C41.0471 9.96307 41.3581 9.48153 41.7672 9.11506C42.1806 8.74432 42.6557 8.47585 43.1926 8.30966C43.7296 8.1392 44.2942 8.05398 44.8865 8.05398C45.2786 8.05398 45.6941 8.10085 46.133 8.1946C46.5762 8.28409 46.9895 8.45028 47.373 8.69318C47.7608 8.93608 48.0783 9.28338 48.3255 9.73509C48.5726 10.1825 48.6962 10.7642 48.6962 11.4801V18H46.8297V16.6577H46.753C46.6294 16.9048 46.4441 17.1477 46.1969 17.3864C45.9498 17.625 45.6323 17.8232 45.2445 17.9808C44.8567 18.1385 44.3922 18.2173 43.851 18.2173ZM44.2665 16.6832C44.7949 16.6832 45.2466 16.5788 45.6216 16.37C46.0009 16.1612 46.2885 15.8885 46.4846 15.5518C46.6848 15.2109 46.785 14.8466 46.785 14.4588V13.1932C46.7168 13.2614 46.5847 13.3253 46.3887 13.3849C46.1969 13.4403 45.9775 13.4893 45.7303 13.532C45.4831 13.5703 45.2424 13.6065 45.008 13.6406C44.7736 13.6705 44.5776 13.696 44.4199 13.7173C44.0492 13.7642 43.7104 13.843 43.4036 13.9538C43.101 14.0646 42.8581 14.2244 42.6749 14.4332C42.4959 14.6378 42.4064 14.9105 42.4064 15.2514C42.4064 15.7244 42.5811 16.0824 42.9306 16.3253C43.28 16.5639 43.7253 16.6832 44.2665 16.6832ZM54.9173 18.1918C54.1246 18.1918 53.4173 17.9893 52.7951 17.5845C52.1772 17.1754 51.6914 16.5937 51.3377 15.8395C50.9883 15.081 50.8136 14.1712 50.8136 13.1101C50.8136 12.049 50.9904 11.1413 51.3441 10.3871C51.7021 9.63281 52.1921 9.0554 52.8143 8.65483C53.4364 8.25426 54.1417 8.05398 54.93 8.05398C55.5394 8.05398 56.0295 8.15625 56.4002 8.3608C56.7752 8.56108 57.065 8.79545 57.2695 9.06392C57.4783 9.33239 57.6403 9.56889 57.7553 9.77344H57.8704V4.90909H59.7816V18H57.9151V16.4723H57.7553C57.6403 16.6811 57.4741 16.9197 57.2567 17.1882C57.0437 17.4567 56.7496 17.6911 56.3746 17.8913C55.9996 18.0916 55.5138 18.1918 54.9173 18.1918ZM55.3391 16.5618C55.8888 16.5618 56.3533 16.4169 56.7326 16.1271C57.1161 15.8331 57.4059 15.4261 57.6019 14.9062C57.8022 14.3864 57.9023 13.7812 57.9023 13.0909C57.9023 12.4091 57.8043 11.8125 57.6083 11.3011C57.4123 10.7898 57.1246 10.3913 56.7454 10.1058C56.3661 9.82031 55.8974 9.67756 55.3391 9.67756C54.7638 9.67756 54.2844 9.8267 53.9009 10.125C53.5174 10.4233 53.2276 10.8303 53.0316 11.3459C52.8398 11.8615 52.744 12.4432 52.744 13.0909C52.744 13.7472 52.842 14.3374 53.038 14.8615C53.234 15.3857 53.5238 15.8011 53.9073 16.108C54.2951 16.4105 54.7724 16.5618 55.3391 16.5618Z" fill="#666666"/>
</svg>
